<svg width="47" height="28" viewBox="0 0 47 28" fill="none" xmlns="http://www.w3.org/2000/svg">
<path d="M10.5063 17.469C12.548 19.5107 12.548 22.8211 10.5063 24.8628C5.4077 29.5719 -1.59605 22.5654 3.11252 17.4689C5.15423 15.4272 8.46458 15.4272 10.5063 17.469ZM44.5013 17.469C46.543 19.5107 46.477 22.8871 44.4353 24.9288C39.3832 29.6008 32.4103 22.4845 37.1075 17.4689C39.1493 15.4272 42.4595 15.4272 44.5013 17.469Z" stroke="black" stroke-width="1.97656" stroke-miterlimit="10" stroke-linecap="round" stroke-linejoin="round"/>
<path d="M32.8824 23.8067C32.8824 23.8067 33.9386 20.6379 37.1075 17.4691C40.2763 14.3003 43.445 13.244 43.445 13.244" stroke="black" stroke-width="1.97656" stroke-miterlimit="10" stroke-linecap="round" stroke-linejoin="round"/>
<path d="M40.6784 21.166L29.4751 1H26.4875M21.2594 22.6597L18.2718 12.9502C14.975 13.0188 12.6189 15.3565 12.6189 15.3565C12.6189 15.3565 13.0436 12.2033 10.0561 7.7219" stroke="black" stroke-width="1.97656" stroke-miterlimit="10" stroke-linecap="round" stroke-linejoin="round"/>
<path d="M7.06848 21.1658L21.2594 22.6596H27.2345L33.5428 8.32218L35.4502 3.9874C35.4502 3.9874 39.1846 4.7343 39.1846 8.46875C39.1846 10.9699 36.3437 11.9007 35.6621 12.1369M12.6188 15.356L10.5536 17.5172M2.88118 17.7162L1 12.95C1 12.95 5.70232 9.4852 12.1881 12.1348" stroke="black" stroke-width="1.97656" stroke-miterlimit="10" stroke-linecap="round" stroke-linejoin="round"/>
<path d="M33.2095 8.46886C29.4751 17.4315 18.2717 12.9502 18.2717 12.9502C18.2717 12.9502 24.2469 3.24059 33.2095 8.46886Z" stroke="#1021E8" stroke-width="1.97656" stroke-miterlimit="22.9256" stroke-linecap="round" stroke-linejoin="round"/>
</svg>
