<svg width="47" height="28" viewBox="0 0 47 28" fill="none" xmlns="http://www.w3.org/2000/svg">
<g opacity="0.77">
<path d="M46 18.9251H43.0124" stroke="#1021E8" stroke-width="1.97656" stroke-miterlimit="22.9256" stroke-linecap="round" stroke-linejoin="round"/>
<path d="M34.7034 15.1908H1V20.6058C1 22.1528 2.25385 23.4066 3.80084 23.4066H5.57466M31.7158 23.4065H17.5249" stroke="black" stroke-width="1.97656" stroke-miterlimit="10" stroke-linejoin="round"/>
<path d="M37.6909 23.4067H43.1991C44.7461 23.4067 46 22.1528 46 20.6058V13.6971L44.3223 7.54554C43.9899 6.32622 42.8827 5.48132 41.6205 5.48132H34.7033V20.419M11.5498 23.4067C11.5498 25.0566 10.2122 26.3942 8.56226 26.3942C4.59933 26.2368 4.60043 20.5759 8.56226 20.4191C10.2122 20.4191 11.5498 21.7567 11.5498 23.4067Z" stroke="black" stroke-width="1.97656" stroke-miterlimit="10" stroke-linejoin="round"/>
<path d="M46 13.6971L34.7033 12.9502M30.222 2.49372H2.49382L1 15.1909H28.7282L30.222 2.49372ZM30.222 2.49372L33.2095 1M17.5249 23.4066C17.5249 25.0565 16.1873 26.3941 14.5374 26.3941C10.5744 26.2367 10.5755 20.5758 14.5374 20.4191C16.1873 20.4191 17.5249 21.7567 17.5249 23.4066ZM37.6909 23.4066C37.6909 25.0565 36.3533 26.3941 34.7033 26.3941C30.7404 26.2367 30.7415 20.5758 34.7033 20.4191C36.3533 20.4191 37.6909 21.7567 37.6909 23.4066Z" stroke="black" stroke-width="1.97656" stroke-miterlimit="10" stroke-linejoin="round"/>
<path d="M9.52852 6.97502L9.08973 10.7095M15.5036 6.97502L15.0648 10.7095M21.4788 6.97502L21.04 10.7095" stroke="#1021E8" stroke-width="1.97656" stroke-miterlimit="10" stroke-linecap="round" stroke-linejoin="round"/>
</g>
</svg>
