<svg width="18" height="18" viewBox="0 0 18 18" fill="none" xmlns="http://www.w3.org/2000/svg">
<g clip-path="url(#clip0_1_888)">
<path d="M14.25 3H13.869L12.231 0.876C12.0199 0.604355 11.7497 0.384312 11.441 0.232541C11.1323 0.0807686 10.793 0.00124728 10.449 0L7.551 0C7.20697 0.00124728 6.86774 0.0807686 6.559 0.232541C6.25026 0.384312 5.9801 0.604355 5.769 0.876L4.131 3H3.75C2.7558 3.00119 1.80267 3.39666 1.09966 4.09966C0.396661 4.80267 0.00119089 5.7558 0 6.75L0 14.25C0.00119089 15.2442 0.396661 16.1973 1.09966 16.9003C1.80267 17.6033 2.7558 17.9988 3.75 18H14.25C15.2442 17.9988 16.1973 17.6033 16.9003 16.9003C17.6033 16.1973 17.9988 15.2442 18 14.25V6.75C17.9988 5.7558 17.6033 4.80267 16.9003 4.09966C16.1973 3.39666 15.2442 3.00119 14.25 3ZM6.957 1.7925C7.02725 1.70179 7.11727 1.6283 7.2202 1.57761C7.32313 1.52693 7.43627 1.50038 7.551 1.5H10.449C10.5637 1.50049 10.6768 1.52709 10.7797 1.57776C10.8826 1.62844 10.9727 1.70187 11.043 1.7925L11.9745 3H6.0255L6.957 1.7925ZM16.5 14.25C16.5 14.8467 16.2629 15.419 15.841 15.841C15.419 16.2629 14.8467 16.5 14.25 16.5H3.75C3.15326 16.5 2.58097 16.2629 2.15901 15.841C1.73705 15.419 1.5 14.8467 1.5 14.25V6.75C1.5 6.15326 1.73705 5.58097 2.15901 5.15901C2.58097 4.73705 3.15326 4.5 3.75 4.5H14.25C14.8467 4.5 15.419 4.73705 15.841 5.15901C16.2629 5.58097 16.5 6.15326 16.5 6.75V14.25Z" fill="#252850"/>
<path d="M9 6C8.10999 6 7.23996 6.26392 6.49994 6.75839C5.75991 7.25285 5.18314 7.95566 4.84254 8.77792C4.50195 9.60019 4.41283 10.505 4.58647 11.3779C4.7601 12.2508 5.18869 13.0526 5.81802 13.682C6.44736 14.3113 7.24918 14.7399 8.1221 14.9135C8.99501 15.0872 9.89981 14.9981 10.7221 14.6575C11.5443 14.3169 12.2471 13.7401 12.7416 13.0001C13.2361 12.26 13.5 11.39 13.5 10.5C13.4988 9.30689 13.0243 8.16299 12.1807 7.31933C11.337 6.47568 10.1931 6.00119 9 6ZM9 13.5C8.40666 13.5 7.82664 13.3241 7.33329 12.9944C6.83994 12.6648 6.45543 12.1962 6.22836 11.6481C6.0013 11.0999 5.94189 10.4967 6.05765 9.91473C6.1734 9.33279 6.45912 8.79824 6.87868 8.37868C7.29824 7.95912 7.83279 7.6734 8.41473 7.55764C8.99667 7.44189 9.59987 7.5013 10.1481 7.72836C10.6962 7.95542 11.1648 8.33994 11.4944 8.83329C11.8241 9.32664 12 9.90666 12 10.5C12 11.2956 11.6839 12.0587 11.1213 12.6213C10.5587 13.1839 9.79565 13.5 9 13.5Z" fill="#252850"/>
</g>
<defs>
<clipPath id="clip0_1_888">
<rect width="18" height="18" fill="white"/>
</clipPath>
</defs>
</svg>
