<svg width="52" height="21" viewBox="0 0 52 21" fill="none" xmlns="http://www.w3.org/2000/svg">
<path d="M20.6858 8.29968L19.3611 10.9479" stroke="#1021E8" stroke-width="1.7304" stroke-miterlimit="10" stroke-linecap="round" stroke-linejoin="round"/>
<path d="M35.9585 15.927H16.0415M34.2988 5.9685C38.0756 5.88462 43.8034 6.05258 51 10.1719C51 13.3514 48.4191 15.9271 45.2448 15.9271H42.5975M9.40245 15.927H6.7552C4.51041 15.927 2.56541 14.6417 1.61622 12.7662L3.59337 10.1178L1 7.62819L9.30704 5.9684" stroke="#1C1F24" stroke-width="1.7304" stroke-miterlimit="10" stroke-linejoin="round"/>
<path d="M16.0416 15.9268C16.0416 17.7601 14.5554 19.2463 12.7221 19.2463C8.31885 19.0714 8.32008 12.7815 12.7221 12.6073C14.5554 12.6073 16.0416 14.0935 16.0416 15.9268ZM42.5976 15.9268C42.5976 17.7601 41.1114 19.2463 39.2781 19.2463C34.8749 19.0714 34.8761 12.7815 39.2781 12.6073C41.1114 12.6073 42.5976 14.0935 42.5976 15.9268Z" stroke="#1C1F24" stroke-width="1.7304" stroke-miterlimit="10" stroke-linejoin="round"/>
<path d="M21.0093 8.38143L19.9948 1.27663M34.2988 5.96857C28.5042 10.1822 22.3755 9.04745 18.6712 7.65531C15.6785 6.53082 12.5042 5.96857 9.30715 5.96857C16.1523 0.394389 28.1669 -1.6299 34.2988 5.96857Z" stroke="#1021E8" stroke-width="1.7304" stroke-miterlimit="22.9256" stroke-linecap="round" stroke-linejoin="round"/>
</svg>
