<svg width="12" height="12" viewBox="0 0 12 12" fill="none" xmlns="http://www.w3.org/2000/svg">
<g clip-path="url(#clip0_1_305)">
<path d="M10.45 2.1455C10.2739 1.66361 9.9541 1.2474 9.53382 0.953117C9.11355 0.658836 8.61306 0.500672 8.1 0.5H3.9C3.38694 0.500672 2.88646 0.658836 2.46618 0.953117C2.04591 1.2474 1.72611 1.66361 1.55 2.1455L0.200002 5.859C0.067227 6.22474 -0.000462366 6.61091 2.37693e-06 7V7.5C0.00089454 7.8864 0.0917186 8.26729 0.265285 8.61251C0.438851 8.95773 0.690394 9.25781 1 9.489C1 9.493 1 9.496 1 9.5V10.5C1 10.8978 1.15804 11.2794 1.43934 11.5607C1.72065 11.842 2.10218 12 2.5 12C2.89783 12 3.27936 11.842 3.56066 11.5607C3.84197 11.2794 4 10.8978 4 10.5V10H8V10.5C8 10.8978 8.15804 11.2794 8.43934 11.5607C8.72065 11.842 9.10218 12 9.5 12C9.89783 12 10.2794 11.842 10.5607 11.5607C10.842 11.2794 11 10.8978 11 10.5V9.5C11 9.496 11 9.493 11 9.489C11.3096 9.25781 11.5612 8.95773 11.7347 8.61251C11.9083 8.26729 11.9991 7.8864 12 7.5V7C12.0005 6.61107 11.9328 6.22505 11.8 5.8595L10.45 2.1455ZM2.491 2.4875C2.59672 2.19858 2.78847 1.94902 3.04041 1.77245C3.29234 1.59588 3.59235 1.50079 3.9 1.5H8.1C8.40782 1.50059 8.70805 1.59558 8.96019 1.77217C9.21232 1.94875 9.40423 2.19842 9.51 2.4875L10.604 5.5H1.3955L2.491 2.4875ZM3 10.5C3 10.6326 2.94732 10.7598 2.85356 10.8536C2.75979 10.9473 2.63261 11 2.5 11C2.36739 11 2.24022 10.9473 2.14645 10.8536C2.05268 10.7598 2 10.6326 2 10.5V9.95C2.16457 9.98342 2.33208 10.0002 2.5 10H3V10.5ZM10 10.5C10 10.6326 9.94732 10.7598 9.85356 10.8536C9.75979 10.9473 9.63261 11 9.5 11C9.36739 11 9.24022 10.9473 9.14645 10.8536C9.05268 10.7598 9 10.6326 9 10.5V10H9.5C9.66793 10.0002 9.83544 9.98342 10 9.95V10.5ZM11 7.5C11 7.89783 10.842 8.27936 10.5607 8.56066C10.2794 8.84197 9.89783 9 9.5 9H2.5C2.10218 9 1.72065 8.84197 1.43934 8.56066C1.15804 8.27936 1 7.89783 1 7.5V7C1.00204 6.83164 1.02233 6.66399 1.0605 6.5H2V7C2 7.13261 2.05268 7.25979 2.14645 7.35355C2.24022 7.44732 2.36739 7.5 2.5 7.5C2.63261 7.5 2.75979 7.44732 2.85356 7.35355C2.94732 7.25979 3 7.13261 3 7V6.5H9V7C9 7.13261 9.05268 7.25979 9.14645 7.35355C9.24022 7.44732 9.36739 7.5 9.5 7.5C9.63261 7.5 9.75979 7.44732 9.85356 7.35355C9.94732 7.25979 10 7.13261 10 7V6.5H10.9395C10.9777 6.66399 10.998 6.83164 11 7V7.5Z" fill="#BFBFBF"/>
</g>
<defs>
<clipPath id="clip0_1_305">
<rect width="12" height="12" fill="white"/>
</clipPath>
</defs>
</svg>
