<svg width="13" height="12" viewBox="0 0 13 12" fill="none" xmlns="http://www.w3.org/2000/svg">
<g clip-path="url(#clip0_1_328)">
<path d="M9.64893 0.5H2.64893C1.98613 0.500794 1.3507 0.764441 0.882036 1.23311C0.413367 1.70178 0.14972 2.3372 0.148926 3L0.148926 9C0.14972 9.6628 0.413367 10.2982 0.882036 10.7669C1.3507 11.2356 1.98613 11.4992 2.64893 11.5H9.64893C10.3117 11.4992 10.9471 11.2356 11.4158 10.7669C11.8845 10.2982 12.1481 9.6628 12.1489 9V3C12.1481 2.3372 11.8845 1.70178 11.4158 1.23311C10.9471 0.764441 10.3117 0.500794 9.64893 0.5ZM2.64893 1.5H9.64893C10.0468 1.5 10.4283 1.65804 10.7096 1.93934C10.9909 2.22064 11.1489 2.60218 11.1489 3V3.5H1.14893V3C1.14893 2.60218 1.30696 2.22064 1.58827 1.93934C1.86957 1.65804 2.2511 1.5 2.64893 1.5ZM9.64893 10.5H2.64893C2.2511 10.5 1.86957 10.342 1.58827 10.0607C1.30696 9.77936 1.14893 9.39782 1.14893 9V4.5H11.1489V9C11.1489 9.39782 10.9909 9.77936 10.7096 10.0607C10.4283 10.342 10.0468 10.5 9.64893 10.5ZM9.64893 6.5C9.64893 6.63261 9.59625 6.75979 9.50248 6.85355C9.40871 6.94732 9.28153 7 9.14893 7H3.14893C3.01632 7 2.88914 6.94732 2.79537 6.85355C2.7016 6.75979 2.64893 6.63261 2.64893 6.5C2.64893 6.36739 2.7016 6.24021 2.79537 6.14645C2.88914 6.05268 3.01632 6 3.14893 6H9.14893C9.28153 6 9.40871 6.05268 9.50248 6.14645C9.59625 6.24021 9.64893 6.36739 9.64893 6.5ZM7.64893 8.5C7.64893 8.63261 7.59625 8.75979 7.50248 8.85355C7.40871 8.94732 7.28153 9 7.14893 9H3.14893C3.01632 9 2.88914 8.94732 2.79537 8.85355C2.7016 8.75979 2.64893 8.63261 2.64893 8.5C2.64893 8.36739 2.7016 8.24021 2.79537 8.14645C2.88914 8.05268 3.01632 8 3.14893 8H7.14893C7.28153 8 7.40871 8.05268 7.50248 8.14645C7.59625 8.24021 7.64893 8.36739 7.64893 8.5ZM1.64893 2.5C1.64893 2.40111 1.67825 2.30444 1.73319 2.22221C1.78813 2.13999 1.86622 2.0759 1.95758 2.03806C2.04895 2.00022 2.14948 1.99031 2.24647 2.00961C2.34346 2.0289 2.43255 2.07652 2.50248 2.14645C2.57241 2.21637 2.62003 2.30546 2.63932 2.40245C2.65861 2.49945 2.64871 2.59998 2.61087 2.69134C2.57302 2.7827 2.50894 2.86079 2.42671 2.91573C2.34449 2.97068 2.24782 3 2.14893 3C2.01632 3 1.88914 2.94732 1.79537 2.85355C1.7016 2.75979 1.64893 2.63261 1.64893 2.5ZM3.14893 2.5C3.14893 2.40111 3.17825 2.30444 3.23319 2.22221C3.28813 2.13999 3.36622 2.0759 3.45758 2.03806C3.54895 2.00022 3.64948 1.99031 3.74647 2.00961C3.84346 2.0289 3.93255 2.07652 4.00248 2.14645C4.07241 2.21637 4.12003 2.30546 4.13932 2.40245C4.15861 2.49945 4.14871 2.59998 4.11087 2.69134C4.07302 2.7827 4.00894 2.86079 3.92671 2.91573C3.84449 2.97068 3.74782 3 3.64893 3C3.51632 3 3.38914 2.94732 3.29537 2.85355C3.2016 2.75979 3.14893 2.63261 3.14893 2.5ZM4.64893 2.5C4.64893 2.40111 4.67825 2.30444 4.73319 2.22221C4.78813 2.13999 4.86622 2.0759 4.95758 2.03806C5.04895 2.00022 5.14948 1.99031 5.24647 2.00961C5.34346 2.0289 5.43255 2.07652 5.50248 2.14645C5.57241 2.21637 5.62003 2.30546 5.63932 2.40245C5.65861 2.49945 5.64871 2.59998 5.61087 2.69134C5.57302 2.7827 5.50894 2.86079 5.42671 2.91573C5.34449 2.97068 5.24782 3 5.14893 3C5.01632 3 4.88914 2.94732 4.79537 2.85355C4.7016 2.75979 4.64893 2.63261 4.64893 2.5Z" fill="#BFBFBF"/>
</g>
<defs>
<clipPath id="clip0_1_328">
<rect width="12" height="12" fill="white" transform="translate(0.148926)"/>
</clipPath>
</defs>
</svg>
