<svg width="22" height="22" viewBox="0 0 22 22" fill="none" xmlns="http://www.w3.org/2000/svg">
<path d="M21.9891 10.3217C21.8567 8.17882 21.1001 6.12156 19.8127 4.4035C18.5252 2.68545 16.7631 1.3817 14.7436 0.653C12.7241 -0.075702 10.5355 -0.197505 8.44767 0.302605C6.3598 0.802716 4.46391 1.90288 2.99375 3.46746C1.52358 5.03204 0.543396 6.99265 0.17404 9.10757C-0.195316 11.2225 0.0622996 13.3993 0.915128 15.3695C1.76796 17.3398 3.17872 19.0175 4.97348 20.1957C6.76825 21.3738 8.86856 22.0011 11.0155 22H17.4102C18.6242 21.9988 19.7882 21.516 20.6467 20.6576C21.5051 19.7991 21.9879 18.6351 21.9891 17.4211V10.3217ZM20.1558 17.4211C20.1558 18.1496 19.8663 18.8484 19.3512 19.3635C18.836 19.8787 18.1373 20.1681 17.4087 20.1681H11.014C9.72232 20.1675 8.44523 19.8947 7.26597 19.3676C6.08672 18.8404 5.03176 18.0707 4.16983 17.1087C3.30346 16.1463 2.65291 15.0097 2.26184 13.7753C1.87076 12.5408 1.7482 11.237 1.90236 9.95133C2.14545 7.92386 3.05639 6.03495 4.49157 4.58237C5.92676 3.12979 7.80456 2.19616 9.82896 1.92867C10.2238 1.87977 10.6213 1.85528 11.0192 1.85533C13.1532 1.84905 15.2213 2.59415 16.8609 3.96C17.819 4.75547 18.6055 5.73725 19.1727 6.8458C19.74 7.95435 20.0762 9.16656 20.1609 10.4089L20.1558 17.4211Z" fill="#9E9E9E"/>
<path d="M7.33693 8.2643H10.9999C11.243 8.2643 11.4762 8.16773 11.6481 7.99582C11.82 7.82391 11.9166 7.59075 11.9166 7.34764C11.9166 7.10452 11.82 6.87136 11.6481 6.69945C11.4762 6.52755 11.243 6.43097 10.9999 6.43097H7.33693C7.09382 6.43097 6.86066 6.52755 6.68875 6.69945C6.51684 6.87136 6.42027 7.10452 6.42027 7.34764C6.42027 7.59075 6.51684 7.82391 6.68875 7.99582C6.86066 8.16773 7.09382 8.2643 7.33693 8.2643Z" fill="#9E9E9E"/>
<path d="M14.6629 10.0948H7.33693C7.09382 10.0948 6.86066 10.1914 6.68875 10.3633C6.51684 10.5352 6.42027 10.7683 6.42027 11.0115C6.42027 11.2546 6.51684 11.4877 6.68875 11.6596C6.86066 11.8315 7.09382 11.9281 7.33693 11.9281H14.6629C14.906 11.9281 15.1392 11.8315 15.3111 11.6596C15.483 11.4877 15.5796 11.2546 15.5796 11.0115C15.5796 10.7683 15.483 10.5352 15.3111 10.3633C15.1392 10.1914 14.906 10.0948 14.6629 10.0948Z" fill="#9E9E9E"/>
<path d="M14.6629 13.7586H7.33693C7.09382 13.7586 6.86066 13.8552 6.68875 14.0271C6.51684 14.199 6.42027 14.4322 6.42027 14.6753C6.42027 14.9184 6.51684 15.1515 6.68875 15.3235C6.86066 15.4954 7.09382 15.5919 7.33693 15.5919H14.6629C14.906 15.5919 15.1392 15.4954 15.3111 15.3235C15.483 15.1515 15.5796 14.9184 15.5796 14.6753C15.5796 14.4322 15.483 14.199 15.3111 14.0271C15.1392 13.8552 14.906 13.7586 14.6629 13.7586Z" fill="#9E9E9E"/>
</svg>
