<svg width="23" height="22" viewBox="0 0 23 22" fill="none" xmlns="http://www.w3.org/2000/svg">
<g clip-path="url(#clip0_1_150)">
<path d="M5.13258 15.5833C5.89197 15.5833 6.50758 14.9677 6.50758 14.2083C6.50758 13.4489 5.89197 12.8333 5.13258 12.8333C4.37319 12.8333 3.75758 13.4489 3.75758 14.2083C3.75758 14.9677 4.37319 15.5833 5.13258 15.5833Z" fill="#9E9E9E"/>
<path d="M17.5076 2.75H4.67425C3.45912 2.75146 2.29417 3.23481 1.43495 4.09403C0.57572 4.95326 0.0923674 6.1182 0.0909119 7.33333L0.0909119 14.6667C0.0923674 15.8818 0.57572 17.0467 1.43495 17.906C2.29417 18.7652 3.45912 19.2485 4.67425 19.25H17.5076C18.7227 19.2485 19.8877 18.7652 20.7469 17.906C21.6061 17.0467 22.0895 15.8818 22.0909 14.6667V7.33333C22.0895 6.1182 21.6061 4.95326 20.7469 4.09403C19.8877 3.23481 18.7227 2.75146 17.5076 2.75ZM4.67425 4.58333H17.5076C18.2369 4.58333 18.9364 4.87306 19.4521 5.38879C19.9678 5.90451 20.2576 6.60399 20.2576 7.33333H1.92425C1.92425 6.60399 2.21398 5.90451 2.7297 5.38879C3.24543 4.87306 3.9449 4.58333 4.67425 4.58333ZM17.5076 17.4167H4.67425C3.9449 17.4167 3.24543 17.1269 2.7297 16.6112C2.21398 16.0955 1.92425 15.396 1.92425 14.6667V9.16667H20.2576V14.6667C20.2576 15.396 19.9678 16.0955 19.4521 16.6112C18.9364 17.1269 18.2369 17.4167 17.5076 17.4167Z" fill="#9E9E9E"/>
</g>
<defs>
<clipPath id="clip0_1_150">
<rect width="22" height="22" fill="white" transform="translate(0.0909119)"/>
</clipPath>
</defs>
</svg>
