<svg width="10" height="11" viewBox="0 0 10 11" fill="none" xmlns="http://www.w3.org/2000/svg">
<mask id="mask0_1_847" style="mask-type:luminance" maskUnits="userSpaceOnUse" x="0" y="0" width="10" height="11">
<path d="M0 0.96591H9.85775V10.9015H0V0.96591Z" fill="white"/>
</mask>
<g mask="url(#mask0_1_847)">
<path fill-rule="evenodd" clip-rule="evenodd" d="M4.88416 1.05994C2.1921 1.05994 0 3.26733 0 5.97838C0 8.6899 2.1921 10.8973 4.88416 10.8973C7.57668 10.8973 9.76832 8.6899 9.76832 5.97838C9.76832 4.80657 9.37447 3.75802 8.70586 2.89943L8.24575 3.4485C8.82911 4.17132 9.05708 4.97431 9.05708 5.97838C9.05708 8.30208 7.19117 10.18 4.88416 10.18C2.57715 10.18 0.71124 8.30208 0.71124 5.97838C0.71124 3.65515 2.57715 1.77581 4.88416 1.77581C5.61532 1.77581 6.16208 1.88192 6.75887 2.21367L7.19581 1.63588C6.49708 1.24713 5.73718 1.05947 4.88416 1.05947V1.05994Z" fill="#1021E8"/>
</g>
<mask id="mask1_1_847" style="mask-type:luminance" maskUnits="userSpaceOnUse" x="1" y="0" width="9" height="9">
<path d="M1.91028 0.478985H9.99989V8.91332H1.91028V0.478985Z" fill="white"/>
</mask>
<g mask="url(#mask1_1_847)">
<path d="M3.07659 5.33191C3.27352 5.33191 3.42272 5.49501 3.52373 5.82028C3.72575 6.43051 3.86938 6.73585 3.9551 6.73585C4.0209 6.73585 4.08901 6.68489 4.1599 6.58295C5.57868 4.29447 6.89181 2.44339 8.09883 1.02925C8.41206 0.663205 8.90923 0.480183 9.59128 0.480183C9.75253 0.480183 9.86141 0.495473 9.91701 0.526054C9.97215 0.556172 9.99995 0.59463 9.99995 0.640501C9.99995 0.711394 9.91701 0.851325 9.75021 1.05983C7.8009 3.41967 5.99291 5.91202 4.32671 8.53596C4.21041 8.71945 3.97318 8.81073 3.61454 8.81073C3.25081 8.81073 3.03628 8.79544 2.97049 8.76486C2.79905 8.68887 2.59703 8.29966 2.36443 7.59768C2.10217 6.81972 1.97058 6.33135 1.97058 6.13304C1.97058 5.91943 2.14758 5.71324 2.50112 5.51493C2.71796 5.39307 2.90979 5.33191 3.07659 5.33191Z" fill="#1021E8"/>
</g>
</svg>
