<svg width="140" height="87" viewBox="0 0 140 87" fill="none" xmlns="http://www.w3.org/2000/svg">
<path d="M2.0086 53.5013C3.07198 53.5013 4.0172 52.6578 4.0172 51.4529C4.0172 50.3684 3.19013 49.4044 2.0086 49.4044C0.945224 49.4044 0 50.2479 0 51.4529C0 52.5373 0.827071 53.5013 2.0086 53.5013Z" fill="url(#paint0_linear_1_53)"/>
<path d="M138.594 28.6787C140.366 26.9917 140.484 24.2202 138.83 22.4127C137.176 20.6052 134.458 20.4847 132.568 22.1717C130.795 23.8587 130.677 26.6302 132.331 28.4377C133.986 30.2451 136.703 30.3656 138.594 28.6787Z" fill="#EAEEF9"/>
<path d="M137.648 9.15787C138.712 9.15787 139.539 8.31438 139.539 7.22989C139.539 6.1454 138.712 5.30191 137.648 5.30191C136.585 5.30191 135.758 6.1454 135.758 7.22989C135.758 8.31438 136.585 9.15787 137.648 9.15787Z" fill="url(#paint1_linear_1_53)"/>
<path d="M130.441 42.536C130.086 42.536 129.85 42.295 129.85 41.9335V40.2465C129.85 39.885 130.086 39.644 130.441 39.644C130.795 39.644 131.032 39.885 131.032 40.2465V41.9335C131.032 42.295 130.677 42.536 130.441 42.536Z" fill="#BCC5D6"/>
<path d="M130.441 76.8781C130.086 76.8781 129.85 76.6371 129.85 76.2756V52.7784C129.85 52.4169 130.086 52.1759 130.441 52.1759C130.795 52.1759 131.032 52.4169 131.032 52.7784V76.1551C131.032 76.6371 130.677 76.8781 130.441 76.8781Z" fill="#BCC5D6"/>
<path d="M130.795 53.7424H129.968C129.614 53.7424 129.378 53.5014 129.259 53.1399L128.787 50.6094C128.669 50.1274 129.023 49.7659 129.496 49.7659H131.268C131.741 49.7659 132.095 50.1274 131.977 50.6094L131.504 53.1399C131.386 53.5014 131.15 53.7424 130.795 53.7424Z" fill="#BCC5D6"/>
<path d="M123.115 78.6856C123.115 77.6011 122.761 76.7576 122.052 76.0346C122.525 75.3116 122.879 74.4681 122.879 73.5041C122.879 71.0942 120.989 69.0457 118.507 69.0457C118.389 69.0457 118.389 69.0457 118.271 69.0457C118.389 68.6842 118.507 68.2022 118.507 67.8407C118.507 65.9127 116.971 64.2257 114.963 64.2257C114.963 64.2257 114.963 64.2257 114.845 64.2257C114.845 64.2257 114.845 64.2257 114.727 64.2257C112.718 64.1052 109.173 66.5152 109.173 66.5152L110.473 80.2521L111.655 82.421L119.216 82.5415C121.461 82.5415 123.115 80.8546 123.115 78.6856Z" fill="#BCC5D6"/>
<path opacity="0.3" d="M123.115 78.6856C123.115 77.6011 122.761 76.7576 122.052 76.0346C122.525 75.3116 122.879 74.4681 122.879 73.5041C122.879 71.0942 120.989 69.0457 118.507 69.0457C118.389 69.0457 118.389 69.0457 118.271 69.0457C118.389 68.6842 118.507 68.2022 118.507 67.8407C118.507 65.9127 116.971 64.2257 114.963 64.2257C114.963 64.2257 114.963 64.2257 114.845 64.2257C114.845 64.2257 114.845 64.2257 114.727 64.2257C112.718 64.1052 109.173 66.5152 109.173 66.5152L110.473 80.2521L111.655 82.421L119.216 82.5415C121.461 82.5415 123.115 80.8546 123.115 78.6856Z" fill="url(#paint2_linear_1_53)"/>
<path d="M137.648 85.072H2.71748C2.00856 85.072 1.53595 84.59 1.53595 83.867C1.53595 83.144 2.00856 82.662 2.71748 82.662H137.53C138.239 82.662 138.712 83.144 138.712 83.867C138.712 84.59 138.239 85.072 137.648 85.072Z" fill="#BCC5D6"/>
<path d="M92.9864 82.5415H21.7401V15.3033H113.191V82.5415H103.502H92.9864Z" fill="#EAEEF9"/>
<path opacity="0.5" d="M92.9864 82.5415H21.7401V15.3033H113.191V82.5415H103.502H92.9864Z" fill="url(#paint3_linear_1_53)"/>
<path d="M122.525 22.2923V21.9308C122.525 21.5693 122.407 21.2078 122.288 20.7258C122.052 20.2438 121.698 19.7618 121.225 19.4003L113.427 13.8574H22.0946L10.1611 19.5208C9.57038 19.7618 9.09776 20.2438 8.86146 20.7258C8.62515 21.2078 8.507 21.6898 8.507 22.2923C8.03439 26.9917 11.6971 31.5707 16.6596 31.5707C21.1494 31.5707 24.8121 27.7147 24.8121 23.1358C24.8121 27.8352 28.4749 31.5707 32.9647 31.5707C37.4545 31.5707 41.2354 27.3532 41.2354 22.6538C41.2354 27.3532 44.78 31.5707 49.2698 31.5707C53.5233 31.5707 57.0679 28.0762 57.4223 23.7382C58.0131 28.5582 61.9122 31.6912 65.5749 31.6912C70.0647 31.6912 73.6093 27.9557 73.7275 23.3768C73.7275 23.4973 73.7275 23.6178 73.7275 23.7382V23.3768C75.8542 35.6676 89.9144 32.7756 89.9144 23.0153C89.9144 23.1358 89.9144 23.3768 89.9144 23.4973C89.9144 23.1358 90.0326 22.7743 90.0326 22.4128C90.0326 26.6302 93.1046 30.4862 97.1217 31.2092C98.4214 31.3297 99.7211 31.2092 101.021 30.8477C101.257 30.7272 101.493 30.7272 101.612 30.6067C103.62 29.7632 105.392 28.0762 106.101 25.5457C106.101 25.4252 106.22 25.3047 106.22 25.1842C106.338 24.9432 106.338 24.5817 106.456 24.3407C107.283 28.1967 110.473 31.3297 114.372 31.3297C119.689 31.5707 123.115 26.6302 122.525 22.2923Z" fill="url(#paint4_linear_1_53)"/>
<path d="M106.692 23.1353C106.692 23.6173 106.692 24.2198 106.574 24.7018C106.574 24.9428 106.456 25.3043 106.338 25.5453C106.338 25.6658 106.22 25.7863 106.22 25.9067C105.511 28.1962 103.857 30.0037 101.73 30.9677C101.493 31.0882 101.257 31.0882 101.139 31.2087C100.312 31.5702 99.3667 31.6907 98.5396 31.6907C98.067 31.6907 97.7126 31.6907 97.24 31.5702C93.3409 30.8472 90.1508 26.9912 90.1508 22.7738C90.1508 23.1353 90.1508 23.4968 90.0326 23.8583C90.0326 23.8583 90.0326 23.8583 90.0326 23.9788V23.7378L90.1508 20.4843L86.7243 13.9774H99.8393L101.375 15.6644L106.574 20.8458L106.692 23.1353Z" fill="white"/>
<path d="M41.2354 20.3638L41.3536 23.7378C41.3536 23.3763 41.2354 23.0148 41.2354 22.5328C41.2354 27.2322 37.4545 31.4497 32.9647 31.4497C28.4749 31.4497 24.8121 27.8347 24.8121 23.1353C24.8121 23.3763 24.8121 23.4968 24.8121 23.6173L24.9303 20.7253L30.129 15.6644L31.9013 13.9774H44.6618L41.2354 20.3638Z" fill="white"/>
<path d="M57.3043 20.6053L57.1861 23.9792C57.1861 23.6177 57.3043 23.2563 57.3043 22.7743C57.3043 27.4737 61.0852 31.6912 65.575 31.6912C70.0648 31.6912 73.7275 27.8352 73.7275 23.2563C73.7275 23.4973 73.7275 23.6178 73.7275 23.7382L73.6094 20.8463L72.3097 15.7853L71.7189 13.8574H59.1947L57.3043 20.6053Z" fill="white"/>
<path d="M113.191 8.67592V13.9779H22.0946V8.67592C22.0946 6.62744 23.7487 4.94046 25.7573 4.94046H109.646C111.536 4.94046 113.191 6.62744 113.191 8.67592Z" fill="#D4DAE8"/>
<path opacity="0.4" d="M70.7736 37.5956H30.6016V73.1426H70.7736V37.5956Z" fill="#1C3754"/>
<path d="M68.4106 40.0055H32.8466V70.7327H68.4106V40.0055Z" fill="white"/>
<path d="M43.3622 40.0055L32.8466 63.0208V51.6939L38.1634 40.0055H43.3622Z" fill="#EAEEF9"/>
<path d="M64.866 40.0055L50.8058 70.7327H46.0797L45.7252 70.6122L59.6673 40.0055H64.866Z" fill="#EAEEF9"/>
<path d="M68.4106 41.2105L54.823 70.7327H52.2236L66.402 40.0055L68.4106 41.2105Z" fill="#EAEEF9"/>
<path opacity="0.4" d="M78.5718 37.5956V82.662H104.802V37.5956H78.5718Z" fill="#1C3754"/>
<path d="M102.439 40.0055H80.9348V60.4903H102.439V40.0055Z" fill="white"/>
<path d="M102.439 62.9003H80.9348V80.2521H102.439V62.9003Z" fill="white"/>
<path opacity="0.4" d="M55.4138 52.7784L49.388 48.4404C49.388 48.1994 49.388 47.9585 49.388 47.838C49.2698 47.2355 48.679 46.7535 48.0883 46.874C47.3794 46.874 46.7886 47.4765 46.7886 48.1995C46.7886 48.5609 46.9067 48.9224 47.1431 49.1634L43.8348 55.7909C43.7166 55.9114 43.8348 56.1524 43.9529 56.1524H44.0711C44.1892 56.1524 44.3074 56.0319 44.3074 56.0319L47.6157 49.4044C47.7338 49.4044 47.852 49.5249 47.9701 49.5249C48.3246 49.5249 48.679 49.2839 48.9154 49.0429L54.9412 53.3809C55.0593 53.5014 55.2956 53.5014 55.4138 53.2604C55.5319 53.0194 55.5319 52.7784 55.4138 52.7784Z" fill="#1C3754"/>
<path d="M58.6039 60.4903L44.6618 64.1053C44.0711 64.2257 43.4803 63.8643 43.244 63.2618L41.8262 57.4778C41.708 56.8753 42.0625 56.2728 42.6532 56.0318L56.5953 52.4169C57.1861 52.2964 57.7768 52.6579 58.0131 53.2604L59.431 59.0443C59.5491 59.6468 59.1947 60.2493 58.6039 60.4903Z" fill="#BCC5D6"/>
<path d="M45.8434 58.5623L54.9412 56.2729C55.4138 56.1524 55.8864 56.3934 56.0045 56.8754C56.1227 57.3574 55.8864 57.8393 55.4138 57.9598L46.316 60.2493C45.8434 60.3698 45.3708 60.1288 45.2526 59.6468C45.1345 59.0443 45.4889 58.6828 45.8434 58.5623Z" fill="white"/>
<path d="M79.9895 62.2978C80.4463 62.2978 80.8166 61.9201 80.8166 61.4543C80.8166 60.9885 80.4463 60.6108 79.9895 60.6108C79.5328 60.6108 79.1625 60.9885 79.1625 61.4543C79.1625 61.9201 79.5328 62.2978 79.9895 62.2978Z" fill="white"/>
<path d="M104.684 80.2521H78.5718V83.626H104.684V80.2521Z" fill="#EAEEF9"/>
<path d="M106.22 83.626H76.6813V87H106.22V83.626Z" fill="white"/>
<path d="M130.441 50.8504C133.051 50.8504 135.167 48.6925 135.167 46.0305C135.167 43.3685 133.051 41.2105 130.441 41.2105C127.831 41.2105 125.715 43.3685 125.715 46.0305C125.715 48.6925 127.831 50.8504 130.441 50.8504Z" fill="#EAEEF9"/>
<path opacity="0.1" d="M130.441 50.8504C133.051 50.8504 135.167 48.6925 135.167 46.0305C135.167 43.3685 133.051 41.2105 130.441 41.2105C127.831 41.2105 125.715 43.3685 125.715 46.0305C125.715 48.6925 127.831 50.8504 130.441 50.8504Z" fill="url(#paint5_linear_1_53)"/>
<path d="M131.504 74.3477H129.259C128.787 74.3477 128.314 74.7092 128.196 75.1912L126.778 82.6621H133.985L132.568 75.1912C132.449 74.7092 131.977 74.3477 131.504 74.3477Z" fill="#D4DAE8"/>
<path d="M12.406 42.536C12.0516 42.536 11.8152 42.295 11.8152 41.9335V40.2465C11.8152 39.885 12.0516 39.644 12.406 39.644C12.7605 39.644 12.9968 39.885 12.9968 40.2465V41.9335C12.9968 42.295 12.7605 42.536 12.406 42.536Z" fill="#BCC5D6"/>
<path d="M12.406 76.8781C12.0516 76.8781 11.8152 76.6371 11.8152 76.2756V52.7784C11.8152 52.4169 12.0516 52.1759 12.406 52.1759C12.7605 52.1759 12.9968 52.4169 12.9968 52.7784V76.1551C12.9968 76.6371 12.7605 76.8781 12.406 76.8781Z" fill="#BCC5D6"/>
<path d="M12.8786 53.7424H12.1697C11.8152 53.7424 11.5789 53.5014 11.4608 53.1399L10.9882 50.6094C10.87 50.1274 11.2245 49.7659 11.6971 49.7659H13.4694C13.942 49.7659 14.2965 50.1274 14.1783 50.6094L13.4694 53.1399C13.4694 53.5014 13.1149 53.7424 12.8786 53.7424Z" fill="#BCC5D6"/>
<path d="M12.4061 50.8504C15.0162 50.8504 17.1322 48.6925 17.1322 46.0305C17.1322 43.3685 15.0162 41.2105 12.4061 41.2105C9.79589 41.2105 7.67993 43.3685 7.67993 46.0305C7.67993 48.6925 9.79589 50.8504 12.4061 50.8504Z" fill="#EAEEF9"/>
<path opacity="0.1" d="M12.4061 50.8504C15.0162 50.8504 17.1322 48.6925 17.1322 46.0305C17.1322 43.3685 15.0162 41.2105 12.4061 41.2105C9.79589 41.2105 7.67993 43.3685 7.67993 46.0305C7.67993 48.6925 9.79589 50.8504 12.4061 50.8504Z" fill="url(#paint6_linear_1_53)"/>
<path d="M13.5876 74.3477H11.3427C10.8701 74.3477 10.3975 74.7092 10.2793 75.1912L8.86151 82.6621H16.0688L14.651 75.1912C14.5329 74.7092 14.0602 74.3477 13.5876 74.3477Z" fill="#D4DAE8"/>
<path opacity="0.3" d="M122.407 20.8463H8.86151C9.09782 20.3643 9.57043 19.8823 10.1612 19.6413L22.0946 13.9778H113.545L121.343 19.5208C121.816 19.8823 122.17 20.3643 122.407 20.8463Z" fill="url(#paint7_linear_1_53)"/>
<path d="M78.5717 16.3878H55.1774C50.6876 16.3878 47.143 12.6524 47.143 8.19391C47.143 3.61496 50.8058 0 55.1774 0H78.5717C83.0616 0 86.6061 3.73546 86.6061 8.19391C86.7243 12.6524 83.0616 16.3878 78.5717 16.3878Z" fill="#F3F6FF"/>
<path d="M49.7424 86.277C49.7424 86.3975 49.7424 86.3975 49.7424 86.277H11.3427C11.2245 85.795 11.2245 85.1925 11.2245 84.7105C11.2245 82.903 11.6972 81.2161 12.5242 79.7701C12.2879 79.1676 12.1698 78.4446 12.1698 77.7216C12.1698 74.9501 14.4147 72.5402 17.2504 72.5402C18.55 72.5402 19.8497 73.1427 20.7949 73.9861C20.9131 71.2147 23.158 69.1662 25.8755 69.1662C28.7112 69.1662 30.9561 71.4557 30.9561 74.3476C30.9561 75.3116 30.7198 76.1551 30.2472 76.8781C31.4287 77.3601 32.3739 78.3241 32.8465 79.5291C34.1462 79.5291 35.3278 80.1316 36.273 80.9751C36.5093 79.2881 37.9271 78.0831 39.6994 78.0831C40.6446 78.0831 41.4717 78.4446 42.0625 79.0471C42.4169 77.4806 43.7166 76.3961 45.3708 76.3961C47.2612 76.3961 48.7972 77.9626 48.7972 79.8906C48.7972 80.9751 48.3246 81.8186 47.6157 82.5415C48.9154 83.144 49.9787 84.7105 49.7424 86.277Z" fill="#BCC5D6"/>
<path d="M39.1446 72.9312C39.2908 71.6086 38.358 70.4156 37.0611 70.2665C35.7642 70.1174 34.5944 71.0688 34.4483 72.3914C34.3021 73.714 35.2349 74.907 36.5318 75.0561C37.8286 75.2052 38.9984 74.2538 39.1446 72.9312Z" fill="#EAEEF9"/>
<path d="M28.2385 84.9515C28.2385 85.4335 28.2385 85.9155 28.0022 86.3975H17.2503C17.1321 85.9155 17.014 85.4335 17.014 84.9515C17.014 84.2285 17.1321 83.5055 17.3684 82.7825C18.1955 80.7341 20.2041 79.2881 22.5672 79.2881C24.9302 79.2881 26.9388 80.8546 27.7659 82.903C28.1204 83.5055 28.2385 84.2285 28.2385 84.9515Z" fill="#EAEEF9"/>
<path d="M33.201 85.795C33.201 86.036 33.201 86.277 33.201 86.3975H26.5844C26.5844 86.1565 26.4662 86.036 26.4662 85.795C26.4662 84.59 27.057 83.626 28.0022 82.903C28.593 82.5415 29.1838 82.3005 29.8927 82.3005C31.665 82.3005 33.201 83.867 33.201 85.795Z" fill="#EAEEF9"/>
<path d="M18.55 85.313C18.55 85.6745 18.4318 86.036 18.3137 86.3975H11.9334C11.9334 86.036 11.8152 85.6745 11.8152 85.313C11.8152 83.385 13.3512 81.8185 15.1235 81.8185C16.0688 81.8185 16.8958 82.18 17.4866 82.7825C18.1955 83.385 18.55 84.349 18.55 85.313Z" fill="#EAEEF9"/>
<path d="M44.1893 86.3975H37.4545C37.4545 84.4695 38.9905 82.903 40.881 82.903C42.7714 82.903 44.1893 84.4695 44.1893 86.3975Z" fill="#EAEEF9"/>
<path d="M91.096 40.0055L81.6437 60.4903H80.9348V51.6939L86.2517 40.0055H91.096Z" fill="#EAEEF9"/>
<path d="M94.2861 40.0055L84.952 60.4903H83.2979L92.6319 40.0055H94.2861Z" fill="#EAEEF9"/>
<path d="M102.439 43.3795V49.6454L97.4762 60.4903H94.6406L102.439 43.3795Z" fill="#EAEEF9"/>
<path d="M90.1508 62.9002L83.0616 80.252H80.9348V77.4806L86.8425 62.9002H90.1508Z" fill="#EAEEF9"/>
<path d="M102.439 66.0332L96.6492 80.2521H98.067L102.439 69.7687V66.0332Z" fill="#EAEEF9"/>
<path d="M100.076 62.9002L92.9864 80.252H90.9778L98.1852 62.9002H100.076Z" fill="#EAEEF9"/>
<defs>
<linearGradient id="paint0_linear_1_53" x1="0" y1="51.4495" x2="3.81941" y2="51.4495" gradientUnits="userSpaceOnUse">
<stop stop-color="#83A6FF"/>
<stop offset="1" stop-color="#5A78FF"/>
</linearGradient>
<linearGradient id="paint1_linear_1_53" x1="135.804" y1="7.27279" x2="139.391" y2="7.27279" gradientUnits="userSpaceOnUse">
<stop stop-color="#83A6FF"/>
<stop offset="1" stop-color="#5A78FF"/>
</linearGradient>
<linearGradient id="paint2_linear_1_53" x1="118.115" y1="73.2123" x2="109.416" y2="75.0918" gradientUnits="userSpaceOnUse">
<stop offset="0.00289017" stop-color="#606673" stop-opacity="0"/>
<stop offset="1" stop-color="#373C47"/>
</linearGradient>
<linearGradient id="paint3_linear_1_53" x1="67.4312" y1="64.3739" x2="67.4312" y2="14.0458" gradientUnits="userSpaceOnUse">
<stop offset="0.00289017" stop-color="#606673" stop-opacity="0"/>
<stop offset="1" stop-color="#373C47"/>
</linearGradient>
<linearGradient id="paint4_linear_1_53" x1="8.45915" y1="22.8369" x2="122.648" y2="22.8369" gradientUnits="userSpaceOnUse">
<stop stop-color="#396EF5"/>
<stop offset="1" stop-color="#83A6FF"/>
</linearGradient>
<linearGradient id="paint5_linear_1_53" x1="126.883" y1="41.865" x2="133.392" y2="49.1968" gradientUnits="userSpaceOnUse">
<stop offset="0.00289017" stop-color="#606673" stop-opacity="0"/>
<stop offset="1" stop-color="#373C47"/>
</linearGradient>
<linearGradient id="paint6_linear_1_53" x1="8.93117" y1="41.865" x2="15.4392" y2="49.1968" gradientUnits="userSpaceOnUse">
<stop offset="0.00289017" stop-color="#606673" stop-opacity="0"/>
<stop offset="1" stop-color="#373C47"/>
</linearGradient>
<linearGradient id="paint7_linear_1_53" x1="65.6334" y1="20.8366" x2="65.6334" y2="13.8459" gradientUnits="userSpaceOnUse">
<stop offset="0.00289017" stop-color="#3F5073" stop-opacity="0"/>
<stop offset="1" stop-color="#283247"/>
</linearGradient>
</defs>
</svg>
