<svg width="23" height="22" viewBox="0 0 23 22" fill="none" xmlns="http://www.w3.org/2000/svg">
<g clip-path="url(#clip0_1_154)">
<path d="M21.2852 8.31325L14.3322 1.35942C13.4717 0.501406 12.3061 0.0195923 11.0909 0.0195923C9.87572 0.0195923 8.71011 0.501406 7.84958 1.35942L0.896665 8.31325C0.640389 8.56789 0.437204 8.87086 0.298891 9.2046C0.160578 9.53835 0.0898864 9.89623 0.0909153 10.2575V19.2564C0.0909153 19.9858 0.380647 20.6852 0.896372 21.201C1.4121 21.7167 2.11157 22.0064 2.84092 22.0064H19.3409C20.0703 22.0064 20.7697 21.7167 21.2855 21.201C21.8012 20.6852 22.0909 19.9858 22.0909 19.2564V10.2575C22.0919 9.89623 22.0213 9.53835 21.8829 9.2046C21.7446 8.87086 21.5414 8.56789 21.2852 8.31325ZM13.8409 20.1731H8.34092V16.5669C8.34092 15.8376 8.63065 15.1381 9.14637 14.6224C9.6621 14.1066 10.3616 13.8169 11.0909 13.8169C11.8203 13.8169 12.5197 14.1066 13.0355 14.6224C13.5512 15.1381 13.8409 15.8376 13.8409 16.5669V20.1731ZM20.2576 19.2564C20.2576 19.4995 20.161 19.7327 19.9891 19.9046C19.8172 20.0765 19.584 20.1731 19.3409 20.1731H15.6742V16.5669C15.6742 15.3513 15.1914 14.1856 14.3318 13.326C13.4723 12.4665 12.3065 11.9836 11.0909 11.9836C9.87534 11.9836 8.70955 12.4665 7.85001 13.326C6.99047 14.1856 6.50758 15.3513 6.50758 16.5669V20.1731H2.84092C2.5978 20.1731 2.36464 20.0765 2.19273 19.9046C2.02083 19.7327 1.92425 19.4995 1.92425 19.2564V10.2575C1.9251 10.0146 2.02159 9.78174 2.19283 9.60942L9.14575 2.65833C9.66247 2.14402 10.3619 1.85528 11.0909 1.85528C11.82 1.85528 12.5194 2.14402 13.0361 2.65833L19.989 9.61217C20.1596 9.78381 20.256 10.0155 20.2576 10.2575V19.2564Z" fill="#1021E8"/>
</g>
<defs>
<clipPath id="clip0_1_154">
<rect width="22" height="22" fill="white" transform="translate(0.0909119)"/>
</clipPath>
</defs>
</svg>
