<svg width="15" height="64" viewBox="0 0 15 64" fill="none" xmlns="http://www.w3.org/2000/svg">
<path d="M14.3874 16.618C14.3856 16.4163 14.3556 16.2125 14.2667 15.9912C14.2005 16.0842 14.1656 16.158 14.1098 16.2076C13.9877 16.3149 13.969 16.4503 13.9712 16.5983C13.9824 17.2733 13.9904 17.9479 14.0029 18.6229C14.0038 18.6877 14.0235 18.7526 14.0351 18.825C14.0861 18.8098 14.1098 18.8089 14.1254 18.7973C14.188 18.7494 14.2475 18.6976 14.2975 18.6564C14.4093 17.9702 14.3932 17.2934 14.3874 16.618Z" fill="#454545"/>
<path d="M5.13837 3.90551C5.37083 4.07046 5.52506 3.56039 5.7906 3.7857C5.66677 4.09594 5.37664 4.25867 5.34446 4.62479C5.51254 4.54701 5.65112 4.47682 5.79327 4.41826C5.91442 4.36864 6.04452 4.34584 6.1612 4.28639C6.30023 4.21486 6.42942 4.1174 6.56309 4.03112C6.2971 4.52734 5.83843 4.87558 5.82814 5.60828C6.22422 5.14291 6.45982 4.57606 6.9757 4.20636C6.84785 4.80048 6.46027 5.21086 6.50721 5.82733C6.71061 5.60157 6.71061 5.60157 6.7428 5.28149C6.87557 5.0915 6.99402 4.92162 7.11293 4.7522L7.18089 4.78215C7.1554 5.19432 7.13037 5.60649 7.10668 5.99407C7.22425 6.08393 7.30204 6.14338 7.37669 6.2006C7.30427 7.44158 7.23364 8.65977 7.16032 9.91639C6.8541 9.9374 6.56353 9.95797 6.21126 9.98211C6.34716 10.2566 6.44507 10.4546 6.54118 10.6509C6.6896 10.57 6.79599 10.5119 6.92921 10.4394C6.94575 10.6057 6.95826 10.7363 6.97972 10.9504C7.18223 10.8091 7.33736 10.7018 7.52467 10.5713C7.53316 10.717 7.53897 10.8047 7.54612 10.9347C7.68336 10.8275 7.79065 10.743 7.91135 10.6486C8.08033 10.7108 8.24932 10.7725 8.42947 10.8386C8.58728 10.6008 8.76296 10.3742 8.84209 10.0313C8.5086 10.0094 8.20103 9.98926 7.90867 9.97004C7.88408 9.8699 7.86799 9.83012 7.86486 9.78943C7.82373 9.1904 7.9869 8.57751 7.7692 7.98921C7.74863 7.93199 7.78171 7.85018 7.77992 7.77955C7.77769 7.68612 7.76562 7.59269 7.75891 7.49925C7.7312 7.0996 7.70482 6.7004 7.67934 6.32041C7.83044 6.23324 7.93728 6.17199 7.99272 6.14025C8.2663 5.72183 8.06647 5.31323 8.08838 4.83892C8.24261 5.20863 8.36376 5.50009 8.48535 5.79201L8.54972 5.78083C8.54972 5.53228 8.54972 5.28328 8.54972 5.03473L8.61946 5.01014C8.73614 5.15945 8.85281 5.30876 8.96994 5.45807L9.02046 5.4317C8.98156 5.19209 8.94312 4.95247 8.89618 4.66189C9.06114 4.74504 9.18318 4.80584 9.38033 4.90464C9.25158 4.56802 9.1559 4.31768 9.05979 4.06778L9.10136 4.02934C9.30477 4.2913 9.50773 4.55327 9.74197 4.85457C9.79875 4.70347 9.84524 4.58233 9.89844 4.4433C9.71247 4.1554 9.53589 3.88092 9.35663 3.6042C9.5958 3.59973 9.83943 3.52239 10.0334 3.76782C10.0585 3.79911 10.1559 3.75262 10.2668 3.73385C9.98695 3.32302 9.74779 2.96583 9.27437 3.03601C9.06561 3.06731 8.85282 3.06731 8.64226 3.08116C9.04728 2.83037 9.52247 2.71102 9.77192 2.13389C9.32041 2.01632 8.99542 2.27024 8.59577 2.44592C8.80811 1.9962 9.24085 1.81873 9.28868 1.29078C8.73793 1.28005 8.46523 1.76553 8.10894 2.12316C8.09732 1.63589 8.55464 1.51519 8.62348 1.07933C8.40846 1.03909 8.20818 0.999751 8.00701 0.963987C7.73879 0.916601 7.68336 1.25144 7.48174 1.39181C7.43883 1.2197 7.40352 1.07754 7.36552 0.924648C7.08701 0.933589 6.84248 0.966225 6.76916 1.36811C6.62298 1.30106 6.50407 1.24697 6.30961 1.15756C6.25328 1.21299 6.17595 1.28764 6.06687 1.39404C6.22065 1.52726 6.27922 1.59789 6.35164 1.63455C6.4254 1.67254 6.51167 1.67746 6.59794 1.69803C6.61761 1.81962 6.63416 1.92467 6.65427 2.04761C5.91845 1.75972 5.80803 1.76732 5.67437 2.10036C5.76064 2.18485 5.84737 2.26979 5.94393 2.36456C5.37843 2.6757 5.37842 2.6757 5.268 2.93767C5.39988 2.90861 5.51298 2.88402 5.62787 2.85854C5.70342 2.9323 5.77539 3.00294 5.83798 3.06329C6.32302 2.96092 6.32302 2.96091 6.62522 3.19382C5.58898 3.32212 5.27829 3.47098 5.13837 3.90551Z" fill="#454545"/>
<path d="M6.61292 12.0826C7.06398 12.6088 7.49046 13.164 7.92141 13.7143C8.06625 13.8985 8.18784 14.1072 8.32598 14.3133C8.24059 14.4474 8.15744 14.5386 8.12078 14.6508C8.09709 14.7228 8.11766 14.8659 8.16281 14.9034C8.21333 14.9454 8.33447 14.9352 8.38945 14.89C8.46098 14.8305 8.49853 14.7139 8.56961 14.5887C8.70238 14.6884 8.82398 14.7751 8.94111 14.8685C9.29337 15.1497 9.66531 15.185 10.0444 14.9669C10.4235 14.7487 10.4311 14.3102 10.0592 14.0062C9.70778 14.1917 9.34523 14.4984 8.92903 14.0223C9.01665 13.9646 9.07521 13.9423 9.11366 13.8976C9.23167 13.7577 9.23079 13.5542 9.11143 13.4532C8.98447 13.3455 8.88612 13.4103 8.80252 13.5399C8.76229 13.6021 8.71669 13.6597 8.66751 13.7268C8.60716 13.683 8.56023 13.662 8.52894 13.6235C7.96209 12.9293 7.40419 12.2252 6.83019 11.5394C6.37197 10.9918 5.8762 10.4974 5.29326 10.1264C4.48502 9.61226 3.65353 9.43523 2.7076 9.83399C3.05718 9.91803 3.34954 9.98911 3.64235 10.0575C4.83147 10.3369 5.77607 11.1081 6.61292 12.0826Z" fill="#454545"/>
<path d="M7.68192 12.1604C7.76864 12.3124 7.86028 12.4737 7.96488 12.6579C8.55185 12.138 9.09276 11.6409 9.65111 11.1711C10.26 10.6588 10.9305 10.315 11.6936 10.2542C11.9167 10.2363 12.1384 10.1907 12.3807 10.1549C12.2292 10.0141 11.7848 9.81385 11.6445 9.81519C10.3007 9.82949 9.17815 10.4339 8.24294 11.5425C8.06681 11.7509 7.87906 11.9444 7.68192 12.1604Z" fill="#454545"/>
<path d="M7.06159 12.9623C6.81393 13.2341 6.60516 13.4621 6.38566 13.7026C6.2815 13.5416 6.21132 13.4326 6.12057 13.2922C6.04234 13.3566 5.9203 13.4205 5.92567 13.4589C5.95204 13.6382 6.01373 13.8108 6.07051 14.0128C5.79558 14.235 5.52154 14.1983 5.24483 13.9806C5.12323 13.885 4.98644 13.7665 4.85411 13.9315C4.73163 14.0835 4.68199 14.2851 4.77677 14.4804C4.83443 14.5989 4.91714 14.7263 5.01638 14.7871C5.38966 15.0151 5.77099 15.0911 6.14963 14.7817C6.25424 14.6963 6.37583 14.6405 6.46568 14.5855C6.59711 14.7366 6.6977 14.8519 6.83449 15.0093C6.90244 14.8184 6.94223 14.7071 6.99319 14.5631C6.94044 14.5216 6.89484 14.4961 6.86042 14.4563C6.82153 14.412 6.79292 14.3557 6.76297 14.3097C6.98917 13.9994 7.19838 13.7137 7.41564 13.416C7.286 13.2497 7.18229 13.1165 7.06159 12.9623Z" fill="#454545"/>
<path d="M6.74734 18.1715C6.73348 18.0092 6.80725 17.9475 6.93286 17.9363C7.02272 17.9287 7.0321 17.9412 7.092 18.1049C7.00349 18.2403 6.88368 18.2148 6.74734 18.1715ZM11.0702 18.7884C11.127 18.7683 11.2057 18.7723 11.2615 18.7951C11.4484 18.872 11.6424 18.8662 11.8369 18.8657C12.1981 18.8653 12.5593 18.8742 12.9196 18.859C13.1843 18.8478 13.3939 18.7245 13.4815 18.4576C13.5169 18.3494 13.5356 18.2314 13.5374 18.1178C13.5428 17.808 13.5276 17.4978 13.5356 17.188C13.5401 17.002 13.5692 16.8165 13.5933 16.6319C13.6072 16.5237 13.6291 16.4227 13.5611 16.3198C13.4757 16.1915 13.4055 16.0539 13.3072 15.8826C13.2097 16.0552 13.1069 16.226 13.018 16.403C12.9956 16.4468 13.0184 16.5139 13.0229 16.5697C13.0358 16.7266 13.0542 16.8836 13.0618 17.0409C13.0685 17.1777 13.0649 17.3145 13.0631 17.4517C13.0604 17.6864 13.056 17.9207 13.0515 18.1563C12.7909 18.2569 12.5593 18.2148 12.3188 18.192C12.2249 17.9032 12.4399 17.5836 12.1811 17.3051C12.0819 17.4343 11.9974 17.5563 11.9004 17.6677C11.7703 17.8161 11.903 17.9904 11.8516 18.1388C11.5615 18.2636 11.4305 18.1782 11.4305 17.8854C11.4305 17.7396 11.4618 17.5854 11.3514 17.4218C11.1981 17.6699 11.0791 17.9077 11.0139 18.1755C10.7689 18.1755 10.5414 18.1755 10.342 18.1755C10.1252 18.0163 10.3263 17.8165 10.2432 17.6466C9.9915 17.7289 9.97139 17.9667 9.88198 18.1634C9.72328 18.1634 9.57397 18.163 9.42466 18.1639C9.27937 18.1648 9.12514 18.2166 8.99371 18.0892L9.0469 18.0087C9.22259 17.8295 9.22885 17.6194 9.1314 17.4079C9.03126 17.1911 8.77064 17.0664 8.53549 17.0986C8.30303 17.1303 8.03392 17.4455 7.99458 17.7445C8.03795 17.7584 8.08398 17.7758 8.13047 17.787C8.18635 17.8004 8.24536 17.8031 8.2999 17.8201C8.46531 17.8706 8.48945 17.9153 8.46084 18.1294C8.17518 18.1518 7.88595 18.1594 7.59805 18.1227C7.58509 18.0745 7.57884 18.0467 7.57079 18.0195C7.49703 17.7665 7.40404 17.5273 7.16443 17.3784C7.0397 17.3011 6.93375 17.2908 6.84658 17.3637C6.56405 17.5997 6.35349 17.8724 6.38881 18.2698C6.39418 18.3346 6.3906 18.3999 6.38971 18.4652C6.38524 18.6793 6.47867 18.7754 6.69593 18.7884C6.8068 18.7955 6.91677 18.813 7.07815 18.8313C7.01199 18.9252 6.9874 18.9882 6.94136 19.0208C6.63782 19.2363 6.30522 19.3521 5.90869 19.2564C6.01151 19.4125 6.12818 19.5059 6.31952 19.5998C6.77237 19.8215 7.18052 19.6722 7.38437 19.2131C7.43399 19.1013 7.48451 18.9878 7.5529 18.8872C7.58196 18.8452 7.67941 18.7996 7.70937 18.817C7.8256 18.8863 7.93065 18.8416 8.04375 18.8233C8.22793 18.7933 8.41346 18.7745 8.59898 18.754L8.70537 18.7674C8.87703 18.7866 9.0478 18.8174 9.21991 18.8228C9.48456 18.8313 9.75055 18.8215 10.0165 18.8219C10.3679 18.8224 10.7215 18.9136 11.0702 18.7884Z" fill="#454545"/>
<path d="M1.66529 17.6579C1.66529 17.7946 1.66529 17.9319 1.66529 18.0642C1.48111 18.1505 1.36354 17.9954 1.20082 18.0155C1.22496 17.7781 1.39438 17.6579 1.66529 17.6579ZM0.71667 18.4688C0.857935 18.4983 1.0068 18.4987 1.14136 18.5439C1.28843 18.5926 1.40243 18.5734 1.52447 18.4835C1.66395 18.3812 1.72429 18.3923 1.83203 18.5256C1.91339 18.6252 1.99923 18.6954 2.13915 18.695C2.50662 18.6919 2.87453 18.7012 3.24244 18.6977C3.30011 18.6972 3.38236 18.6726 3.41053 18.6302C3.53436 18.4451 3.65237 18.2479 3.62868 18.0132C3.59649 17.6985 3.48607 17.4106 3.27999 17.1661C3.26032 17.1429 3.22589 17.1317 3.17985 17.104C3.1262 17.2725 3.07927 17.4209 3.0292 17.5787C3.08687 17.6386 3.16332 17.6865 3.18925 17.754C3.22546 17.8483 3.24289 17.9601 3.22813 18.058C3.22322 18.0915 3.09715 18.1246 3.02562 18.1272C2.81686 18.1362 2.60764 18.1299 2.39887 18.1286C2.07611 18.1263 1.96837 18.0258 1.9724 17.6999C1.97508 17.5068 2.00548 17.3136 2.02962 17.1219C2.04258 17.0159 2.03856 16.9211 1.92099 16.825C1.85841 16.8831 1.77928 16.9337 1.73189 17.0047C1.62818 17.1594 1.50659 17.2841 1.32822 17.3481L1.23881 17.4062C0.910682 17.5908 0.753322 17.9091 0.599093 18.2283C0.541425 18.3485 0.585241 18.4411 0.71667 18.4688Z" fill="#454545"/>
<path d="M5.58583 17.7371C5.50269 17.594 5.4249 17.4469 5.33058 17.3119C5.19736 17.121 5.02346 16.974 4.76909 16.8814C4.72305 16.9731 4.6779 17.0576 4.63856 17.1447C4.54513 17.3508 4.5496 17.3754 4.74004 17.4898C4.92064 17.5976 5.05788 17.7375 5.11376 17.9445C5.15399 18.0925 5.09857 18.1541 4.94166 18.1559C4.6855 18.1586 4.42935 18.1676 4.16247 18.1743C4.12492 18.3392 4.09139 18.4845 4.04892 18.6691C4.1504 18.6955 4.2237 18.7295 4.29747 18.7313C4.59296 18.7375 4.8889 18.738 5.18439 18.7317C5.25234 18.7304 5.3422 18.7129 5.38288 18.6678C5.59299 18.4349 5.8107 18.1255 5.58583 17.7371Z" fill="#454545"/>
<path d="M1.4563 16.1698C1.56806 16.1886 1.66372 16.3044 1.76385 16.3755C2.04817 16.1448 2.02895 15.9754 1.70708 15.839C1.61633 15.9029 1.55241 16.0634 1.41249 15.9991C1.30877 15.9517 1.23143 15.8466 1.12414 15.751C1.04501 15.8216 0.963208 15.894 0.870224 15.9772C0.957844 16.0983 1.02758 16.1949 1.09643 16.2892C1.23322 16.2391 1.35392 16.1524 1.4563 16.1698Z" fill="#454545"/>
<path d="M3.18447 19.1182C3.13529 19.162 3.0897 19.2063 3.04007 19.2456C2.91759 19.344 2.86617 19.3382 2.74681 19.2282C2.6963 19.1817 2.63863 19.1428 2.56397 19.0842C2.48842 19.1732 2.42629 19.2465 2.36594 19.318C2.40617 19.3811 2.43434 19.4302 2.46831 19.4754C2.50541 19.525 2.54744 19.5706 2.5832 19.6126C2.71061 19.5545 2.82013 19.4624 2.92474 19.4687C3.03068 19.4749 3.13127 19.5769 3.2551 19.6488C3.32663 19.5711 3.40218 19.4897 3.49025 19.394C3.39056 19.2698 3.33288 19.15 3.18447 19.1182Z" fill="#454545"/>
<path d="M11.5664 59.8663C11.5664 62.088 9.76479 63.8896 7.54301 63.8896C5.32077 63.8896 3.51965 62.088 3.51965 59.8663C3.51965 57.644 5.32077 55.8429 7.54301 55.8429C9.76479 55.8429 11.5664 57.644 11.5664 59.8663Z" fill="#444444"/>
<path d="M9.66083 37.1277C9.30543 36.914 8.91517 36.8098 8.51462 36.7133C7.84228 36.5496 7.1735 36.3713 6.49937 36.2139C6.06798 36.1138 5.90883 35.5268 6.1556 35.2228C6.35766 34.9729 6.6165 34.8241 6.95446 34.7946C7.14222 34.778 7.33355 34.7463 7.51907 34.761C7.93481 34.7946 8.34609 34.8692 8.60716 35.2076C8.7453 35.386 8.84007 35.5916 8.96748 35.8076C9.36266 35.8076 9.78154 35.8076 10.195 35.8076C10.2643 35.4405 10.1262 34.9801 9.88882 34.6488C9.60361 34.2519 9.18027 34.0274 8.72831 33.8339C8.17309 33.5965 7.58032 33.609 6.98754 33.6327C6.47121 33.6528 5.98886 33.7914 5.57713 34.0726C5.25705 34.2916 4.99374 34.563 4.85605 34.9273C4.72596 35.2724 4.68573 35.6193 4.713 35.9797C4.75502 36.5483 5.10551 36.9448 5.60351 37.226C6.18511 37.5546 6.85968 37.6556 7.51549 37.7987C7.89324 37.8814 8.26429 37.9945 8.63175 38.1098C8.94558 38.2082 9.04391 38.4482 9.04749 38.7276C9.0533 39.1742 8.84812 39.4129 8.33984 39.5287C7.9223 39.623 7.50655 39.6092 7.07516 39.5555C6.48373 39.4813 6.10643 39.2475 5.9902 38.7003C5.95846 38.5501 5.8525 38.4844 5.68442 38.4884C5.42469 38.4951 5.16407 38.492 4.90389 38.5005C4.81359 38.5032 4.72418 38.5278 4.61555 38.5461C4.61555 38.6914 4.59052 38.8219 4.61958 38.9417C4.83416 39.8354 5.50292 40.332 6.40996 40.5985C7.07918 40.7956 7.77075 40.7393 8.45427 40.6816C8.69612 40.6615 8.94915 40.5976 9.16417 40.4952C10.0475 40.0736 10.5182 39.421 10.4771 38.4813C10.4512 37.8957 10.2009 37.4536 9.66083 37.1277Z" fill="#454545"/>
<path d="M8.64403 25.5705C8.95964 25.2777 9.29671 25.0028 9.58773 24.6912C9.88009 24.3778 10.2847 24.153 10.5287 23.7265C9.9467 23.7265 9.41741 23.7202 8.88812 23.7328C8.79648 23.735 8.68784 23.7994 8.61989 23.8642C8.29043 24.1744 7.97302 24.4954 7.65115 24.8119C7.17595 25.2786 6.70299 25.7467 6.22376 26.2103C6.1424 26.2894 6.03734 26.3484 5.88669 26.4575C5.80533 25.4941 5.96135 24.5982 5.80846 23.7024C5.36232 23.7024 4.95372 23.7024 4.55809 23.7024C4.40699 24.0712 4.34619 29.787 4.48656 30.4316C4.93271 30.4755 5.37081 30.5278 5.82322 30.4254C5.83216 30.3145 5.84512 30.23 5.84557 30.1451C5.8487 29.6368 5.86926 29.1276 5.84467 28.6202C5.81785 28.078 6.25014 27.8451 6.62878 27.4968C6.83442 27.7373 7.01904 27.93 7.17461 28.141C7.39098 28.4334 7.57695 28.7441 7.79019 29.0378C8.04992 29.3954 8.32976 29.7405 8.59217 30.0968C8.76965 30.3373 8.94489 30.5309 9.32443 30.4893C9.67401 30.4509 10.0334 30.4862 10.3888 30.4839C10.4639 30.4831 10.539 30.4594 10.6758 30.4357C9.69771 29.078 8.64984 27.8196 7.66278 26.4892C8.00387 26.17 8.3226 25.8692 8.64403 25.5705Z" fill="#454545"/>
<path d="M6.43028 48.2385C6.72398 47.1009 7.19158 46.0492 7.58408 44.9599C8.04006 46.0229 8.38696 47.1012 8.71554 48.2541C7.93277 48.2666 7.21036 48.2881 6.43028 48.2385ZM9.35749 46.4298C9.07541 45.6617 8.79511 44.8932 8.51661 44.1248C8.47324 44.0037 8.41289 43.9111 8.25822 43.8924C7.77631 43.8329 7.29886 43.8664 6.78835 43.9201C5.94165 46.1355 5.09899 48.3403 4.23889 50.5907C4.6828 50.6059 5.05965 50.6078 5.43383 50.6365C5.66942 50.6548 5.7758 50.5689 5.83884 50.3709C5.95015 50.019 6.08336 49.6734 6.21837 49.2939C7.1205 49.2939 7.98909 49.2939 8.86887 49.2939C9.00968 49.6905 9.14961 50.0562 9.26674 50.4281C9.31904 50.5958 9.42051 50.6548 9.5971 50.6543C9.94042 50.6525 10.2833 50.66 10.6266 50.6574C10.6901 50.6569 10.7527 50.6253 10.8457 50.5993C10.5859 49.8479 10.3392 49.1169 10.0803 48.3901C9.84655 47.7342 9.59755 47.0834 9.35749 46.4298Z" fill="#454545"/>
</svg>
