<svg width="20" height="20" viewBox="0 0 20 20" fill="none" xmlns="http://www.w3.org/2000/svg">
<g clip-path="url(#clip0_1_47)">
<path d="M19.1667 9.16669H0.833333C0.373096 9.16669 0 9.53978 0 10C0 10.4603 0.373096 10.8334 0.833333 10.8334H19.1667C19.6269 10.8334 20 10.4603 20 10C20 9.53978 19.6269 9.16669 19.1667 9.16669Z" fill="#3F3F3F"/>
<path d="M19.1667 3.33331H0.833333C0.373096 3.33331 0 3.70641 0 4.16665C0 4.62688 0.373096 4.99998 0.833333 4.99998H19.1667C19.6269 4.99998 20 4.62688 20 4.16665C20 3.70641 19.6269 3.33331 19.1667 3.33331Z" fill="#3F3F3F"/>
<path d="M19.1667 15H0.833333C0.373096 15 0 15.3731 0 15.8333C0 16.2936 0.373096 16.6667 0.833333 16.6667H19.1667C19.6269 16.6667 20 16.2936 20 15.8333C20 15.3731 19.6269 15 19.1667 15Z" fill="#3F3F3F"/>
</g>
<defs>
<clipPath id="clip0_1_47">
<rect width="20" height="20" fill="white"/>
</clipPath>
</defs>
</svg>
