<svg width="20" height="20" viewBox="0 0 20 20" fill="none" xmlns="http://www.w3.org/2000/svg">
<g clip-path="url(#clip0_1_40)">
<path d="M18.7958 11.385L17.2125 5.68834C16.7484 4.01945 15.7398 2.55358 14.3469 1.52373C12.9541 0.493884 11.257 -0.0408381 9.52539 0.00456195C7.79377 0.049962 6.12701 0.672879 4.79005 1.7743C3.4531 2.87571 2.52267 4.39243 2.14667 6.08334L0.920833 11.5958C0.78543 12.205 0.78856 12.8367 0.929994 13.4444C1.07143 14.0522 1.34755 14.6204 1.73799 15.1071C2.12842 15.5939 2.62318 15.9867 3.18576 16.2566C3.74834 16.5266 4.36435 16.6667 4.98833 16.6667H5.91667C6.10793 17.6086 6.61894 18.4554 7.36312 19.0637C8.1073 19.6719 9.03887 20.0042 10 20.0042C10.9611 20.0042 11.8927 19.6719 12.6369 19.0637C13.3811 18.4554 13.8921 17.6086 14.0833 16.6667H14.7817C15.424 16.6667 16.0577 16.5183 16.6331 16.2329C17.2086 15.9475 17.7103 15.5329 18.099 15.0216C18.4877 14.5102 18.753 13.9159 18.874 13.285C18.995 12.6542 18.9677 12.0039 18.7958 11.385ZM10 18.3333C9.48478 18.3312 8.98281 18.1699 8.56275 17.8716C8.14269 17.5733 7.82507 17.1524 7.65333 16.6667H12.3467C12.1749 17.1524 11.8573 17.5733 11.4373 17.8716C11.0172 18.1699 10.5152 18.3312 10 18.3333ZM16.7717 14.0125C16.5395 14.3206 16.2386 14.5702 15.893 14.7416C15.5474 14.9131 15.1666 15.0015 14.7808 15H4.98833C4.61399 14.9999 4.24443 14.9158 3.90695 14.7538C3.56947 14.5918 3.27267 14.3561 3.03847 14.0641C2.80426 13.7721 2.63863 13.4312 2.5538 13.0665C2.46897 12.7019 2.4671 12.3229 2.54833 11.9575L3.77333 6.44417C4.06863 5.11601 4.79942 3.92468 5.84955 3.05955C6.89967 2.19442 8.20885 1.70515 9.56898 1.66952C10.9291 1.63389 12.2621 2.05394 13.3561 2.8629C14.4501 3.67186 15.2422 4.8233 15.6067 6.13417L17.19 11.8308C17.2946 12.202 17.3113 12.5924 17.2387 12.9711C17.166 13.3498 17.0062 13.7064 16.7717 14.0125Z" fill="#3F3F3F"/>
</g>
<defs>
<clipPath id="clip0_1_40">
<rect width="20" height="20" fill="white"/>
</clipPath>
</defs>
</svg>
