<svg width="12" height="15" viewBox="0 0 12 15" fill="none" xmlns="http://www.w3.org/2000/svg">
<path d="M9.9486 1.28414L6.1896 0.0307445C6.06652 -0.0102482 5.93348 -0.0102482 5.8104 0.0307445L2.0514 1.28414C1.45374 1.48267 0.93385 1.8645 0.565587 2.37537C0.197324 2.88624 -0.000577004 3.50018 1.26367e-06 4.12994V7.20014C1.26367e-06 11.7379 5.52 14.2441 5.7564 14.3485C5.83309 14.3826 5.91608 14.4002 6 14.4002C6.08392 14.4002 6.16691 14.3826 6.2436 14.3485C6.48 14.2441 12 11.7379 12 7.20014V4.12994C12.0006 3.50018 11.8027 2.88624 11.4344 2.37537C11.0661 1.8645 10.5463 1.48267 9.9486 1.28414ZM10.8 7.20014C10.8 10.4731 7.0086 12.6199 6 13.1335C4.9902 12.6217 1.2 10.4815 1.2 7.20014V4.12994C1.20004 3.75211 1.31897 3.38387 1.53994 3.07739C1.76091 2.77091 2.07273 2.54174 2.4312 2.42234L6 1.23254L9.5688 2.42234C9.92727 2.54174 10.2391 2.77091 10.4601 3.07739C10.681 3.38387 10.8 3.75211 10.8 4.12994V7.20014Z" fill="#BFBFBF"/>
<path d="M7.98016 4.98011L5.46736 7.50011L4.12096 6.09611C4.06693 6.03703 4.00162 5.98937 3.92888 5.95592C3.85614 5.92247 3.77744 5.90392 3.69742 5.90136C3.6174 5.8988 3.53768 5.91227 3.46295 5.941C3.38821 5.96972 3.31999 6.01312 3.26229 6.06862C3.20458 6.12412 3.15857 6.1906 3.12696 6.26416C3.09535 6.33772 3.07878 6.41686 3.07823 6.49691C3.07768 6.57697 3.09316 6.65633 3.12375 6.73032C3.15434 6.80431 3.19943 6.87142 3.25636 6.92771L4.63996 8.36771C4.74315 8.47916 4.86786 8.56853 5.00657 8.63041C5.14528 8.69228 5.2951 8.72539 5.44696 8.72771H5.46676C5.6156 8.7282 5.76304 8.69913 5.90055 8.64217C6.03805 8.58521 6.16287 8.5015 6.26776 8.39591L8.83096 5.83271C8.88694 5.77685 8.93138 5.7105 8.96172 5.63747C8.99206 5.56443 9.00772 5.48614 9.0078 5.40705C9.00789 5.32796 8.99239 5.24963 8.9622 5.17653C8.93202 5.10343 8.88773 5.03699 8.83186 4.98101C8.776 4.92503 8.70965 4.8806 8.63662 4.85026C8.56358 4.81991 8.48529 4.80425 8.4062 4.80417C8.32711 4.80409 8.24878 4.81958 8.17568 4.84977C8.10258 4.87996 8.03614 4.92425 7.98016 4.98011Z" fill="#BFBFBF"/>
</svg>
