<svg width="22" height="22" viewBox="0 0 22 22" fill="none" xmlns="http://www.w3.org/2000/svg">
<g clip-path="url(#clip0_1_128)">
<path d="M11 7.33331C10.2748 7.33331 9.56589 7.54836 8.96291 7.95126C8.35993 8.35416 7.88996 8.92681 7.61244 9.59681C7.33492 10.2668 7.2623 11.004 7.40378 11.7153C7.54526 12.4266 7.89448 13.0799 8.40727 13.5927C8.92006 14.1055 9.5734 14.4547 10.2847 14.5962C10.9959 14.7377 11.7332 14.6651 12.4032 14.3875C13.0732 14.11 13.6458 13.6401 14.0487 13.0371C14.4516 12.4341 14.6667 11.7252 14.6667 11C14.6667 10.0275 14.2804 9.09489 13.5927 8.40725C12.9051 7.71962 11.9725 7.33331 11 7.33331ZM11 12.8333C10.6374 12.8333 10.2829 12.7258 9.98145 12.5243C9.67996 12.3229 9.44498 12.0366 9.30622 11.7016C9.16746 11.3666 9.13115 10.9979 9.20189 10.6423C9.27263 10.2867 9.44724 9.96001 9.70363 9.70362C9.96003 9.44722 10.2867 9.27261 10.6423 9.20187C10.998 9.13113 11.3666 9.16744 11.7016 9.3062C12.0366 9.44496 12.3229 9.67994 12.5244 9.98143C12.7258 10.2829 12.8333 10.6374 12.8333 11C12.8333 11.4862 12.6402 11.9525 12.2964 12.2963C11.9525 12.6402 11.4862 12.8333 11 12.8333Z" fill="#9E9E9E"/>
<path d="M19.5195 12.7417L19.1125 12.507C19.2957 11.5101 19.2957 10.4881 19.1125 9.49117L19.5195 9.2565C19.8325 9.07593 20.1068 8.83549 20.3269 8.54889C20.5469 8.26229 20.7084 7.93516 20.802 7.58617C20.8957 7.23717 20.9196 6.87315 20.8726 6.51489C20.8255 6.15664 20.7084 5.81115 20.5278 5.49817C20.3473 5.18518 20.1068 4.91083 19.8202 4.69077C19.5336 4.47071 19.2065 4.30926 18.8575 4.21562C18.5085 4.12199 18.1445 4.09802 17.7862 4.14506C17.428 4.19211 17.0825 4.30927 16.7695 4.48983L16.3616 4.72542C15.5912 4.06718 14.7058 3.55689 13.75 3.22025V2.75C13.75 2.02065 13.4603 1.32118 12.9445 0.805456C12.4288 0.289731 11.7293 0 11 0C10.2706 0 9.57117 0.289731 9.05545 0.805456C8.53972 1.32118 8.24999 2.02065 8.24999 2.75V3.22025C7.29427 3.5581 6.40919 4.06963 5.63933 4.72908L5.22958 4.49167C4.59748 4.12699 3.8464 4.02836 3.14158 4.21746C2.43675 4.40656 1.83592 4.8679 1.47124 5.5C1.10657 6.1321 1.00793 6.88318 1.19703 7.588C1.38613 8.29282 1.84748 8.89366 2.47958 9.25833L2.88658 9.493C2.70334 10.4899 2.70334 11.5119 2.88658 12.5088L2.47958 12.7435C1.84748 13.1082 1.38613 13.709 1.19703 14.4138C1.00793 15.1187 1.10657 15.8697 1.47124 16.5018C1.83592 17.1339 2.43675 17.5953 3.14158 17.7844C3.8464 17.9735 4.59748 17.8748 5.22958 17.5102L5.63749 17.2746C6.40819 17.9329 7.29389 18.4432 8.24999 18.7798V19.25C8.24999 19.9793 8.53972 20.6788 9.05545 21.1945C9.57117 21.7103 10.2706 22 11 22C11.7293 22 12.4288 21.7103 12.9445 21.1945C13.4603 20.6788 13.75 19.9793 13.75 19.25V18.7798C14.7057 18.4419 15.5908 17.9304 16.3607 17.2709L16.7704 17.5074C17.4025 17.8721 18.1536 17.9707 18.8584 17.7816C19.5632 17.5925 20.1641 17.1312 20.5287 16.4991C20.8934 15.867 20.9921 15.1159 20.803 14.4111C20.6139 13.7063 20.1525 13.1054 19.5204 12.7408L19.5195 12.7417ZM17.1838 9.28033C17.4942 10.4051 17.4942 11.593 17.1838 12.7178C17.1296 12.9136 17.142 13.1218 17.219 13.3098C17.296 13.4978 17.4332 13.6549 17.6092 13.7564L18.6028 14.3303C18.8135 14.4518 18.9672 14.6521 19.0302 14.887C19.0932 15.1219 19.0603 15.3722 18.9388 15.5829C18.8172 15.7935 18.617 15.9473 18.3821 16.0103C18.1471 16.0733 17.8968 16.0404 17.6862 15.9188L16.6907 15.3432C16.5146 15.2412 16.3095 15.2007 16.1079 15.2281C15.9062 15.2554 15.7194 15.3492 15.5769 15.4944C14.761 16.3274 13.7331 16.9216 12.6042 17.2132C12.4071 17.2638 12.2325 17.3786 12.1079 17.5394C11.9832 17.7002 11.9156 17.898 11.9157 18.1014V19.25C11.9157 19.4931 11.8192 19.7263 11.6473 19.8982C11.4753 20.0701 11.2422 20.1667 10.9991 20.1667C10.756 20.1667 10.5228 20.0701 10.3509 19.8982C10.179 19.7263 10.0824 19.4931 10.0824 19.25V18.1023C10.0825 17.8989 10.0149 17.7012 9.89028 17.5403C9.76564 17.3795 9.59105 17.2647 9.39399 17.2141C8.26498 16.9214 7.23738 16.3258 6.42216 15.4917C6.27964 15.3464 6.09284 15.2527 5.89119 15.2253C5.68954 15.1979 5.48451 15.2384 5.30841 15.3404L4.31474 15.9152C4.21045 15.9763 4.0951 16.0162 3.97532 16.0326C3.85555 16.049 3.73372 16.0415 3.61684 16.0106C3.49997 15.9797 3.39036 15.926 3.29433 15.8525C3.1983 15.7791 3.11774 15.6874 3.05729 15.5827C2.99685 15.478 2.95771 15.3624 2.94212 15.2425C2.92654 15.1226 2.93483 15.0009 2.9665 14.8842C2.99818 14.7675 3.05261 14.6583 3.12668 14.5627C3.20075 14.4672 3.29299 14.3873 3.39808 14.3275L4.39174 13.7537C4.5677 13.6521 4.70495 13.4951 4.78193 13.3071C4.85892 13.1191 4.87128 12.9109 4.81708 12.7151C4.50665 11.5903 4.50665 10.4024 4.81708 9.27758C4.8703 9.08222 4.85735 8.87474 4.78024 8.68752C4.70313 8.5003 4.5662 8.34387 4.39083 8.24267L3.39716 7.66883C3.1865 7.54728 3.03276 7.34701 2.96975 7.1121C2.90675 6.87719 2.93964 6.62687 3.0612 6.41621C3.18276 6.20555 3.38302 6.05181 3.61793 5.9888C3.85285 5.9258 4.10317 5.95869 4.31383 6.08025L5.30933 6.65592C5.48494 6.75814 5.68954 6.79911 5.89098 6.7724C6.09241 6.74568 6.27926 6.6528 6.42216 6.50833C7.23807 5.6754 8.26597 5.0811 9.39491 4.78958C9.59257 4.73877 9.76762 4.62344 9.89232 4.46188C10.017 4.30031 10.0842 4.10176 10.0833 3.89767V2.75C10.0833 2.50688 10.1799 2.27373 10.3518 2.10182C10.5237 1.92991 10.7569 1.83333 11 1.83333C11.2431 1.83333 11.4763 1.92991 11.6482 2.10182C11.8201 2.27373 11.9167 2.50688 11.9167 2.75V3.89767C11.9166 4.10113 11.9842 4.29884 12.1088 4.45966C12.2334 4.62047 12.408 4.73526 12.6051 4.78592C13.7344 5.07847 14.7624 5.67406 15.5778 6.50833C15.7203 6.65359 15.9072 6.7473 16.1088 6.77469C16.3105 6.80207 16.5155 6.76158 16.6916 6.65958L17.6852 6.08483C17.7895 6.02369 17.9049 5.98379 18.0247 5.96741C18.1444 5.95103 18.2663 5.95851 18.3831 5.98941C18.5 6.02031 18.6096 6.07402 18.7057 6.14745C18.8017 6.22089 18.8822 6.31259 18.9427 6.41728C19.0031 6.52198 19.0423 6.63759 19.0579 6.75747C19.0734 6.87736 19.0652 6.99913 19.0335 7.1158C19.0018 7.23247 18.9474 7.34172 18.8733 7.43726C18.7992 7.5328 18.707 7.61275 18.6019 7.6725L17.6082 8.24633C17.4332 8.34781 17.2967 8.50435 17.2199 8.69155C17.1431 8.87875 17.1304 9.08609 17.1838 9.28125V9.28033Z" fill="#9E9E9E"/>
</g>
<defs>
<clipPath id="clip0_1_128">
<rect width="22" height="22" fill="white"/>
</clipPath>
</defs>
</svg>
